<?xml version="1.0" encoding="UTF-8" ?>
<svg version="1.1" width="128" height="128" xmlns="http://www.w3.org/2000/svg" shape-rendering="crispEdges">
<rect x="16" y="8" width="48" height="8" fill="#C2E1EE" />
<rect x="64" y="8" width="4" height="8" fill="#E2F8FB" />
<rect x="68" y="8" width="4" height="8" fill="#C2E1EE" />
<rect x="72" y="8" width="12" height="8" fill="#E2F8FB" />
<rect x="84" y="8" width="12" height="8" fill="#C2E1EE" />
<rect x="96" y="8" width="4" height="8" fill="#E2F8FB" />
<rect x="100" y="8" width="12" height="8" fill="#C2E1EE" />
<rect x="12" y="12" width="4" height="104" fill="#C2E1EE" />
<rect x="112" y="12" width="4" height="104" fill="#C2E1EE" />
<rect x="8" y="16" width="4" height="96" fill="#C2E1EE" />
<rect x="16" y="16" width="4" height="4" fill="#C2E1EE" />
<rect x="20" y="16" width="88" height="4" fill="#252237" />
<rect x="108" y="16" width="4" height="4" fill="#C2E1EE" />
<rect x="116" y="16" width="4" height="96" fill="#C2E1EE" />
<rect x="16" y="20" width="8" height="4" fill="#252237" />
<rect x="24" y="20" width="84" height="12" fill="#363B48" />
<rect x="108" y="20" width="4" height="4" fill="#252237" />
<rect x="16" y="24" width="4" height="84" fill="#252237" />
<rect x="20" y="24" width="4" height="48" fill="#363B48" />
<rect x="108" y="24" width="4" height="24" fill="#363B48" />
<rect x="120" y="24" width="4" height="96" fill="#363B48" opacity="0.686275" />
<rect x="24" y="32" width="8" height="40" fill="#363B48" />
<rect x="32" y="32" width="24" height="4" fill="#C2E1EE" />
<rect x="56" y="32" width="8" height="4" fill="#363B48" />
<rect x="64" y="32" width="4" height="36" fill="#E2F8FB" />
<rect x="68" y="32" width="4" height="36" fill="#C2E1EE" />
<rect x="72" y="32" width="4" height="36" fill="#E2F8FB" />
<rect x="76" y="32" width="12" height="4" fill="#363B48" />
<rect x="88" y="32" width="8" height="36" fill="#C2E1EE" />
<rect x="96" y="32" width="4" height="36" fill="#E2F8FB" />
<rect x="100" y="32" width="4" height="36" fill="#C2E1EE" />
<rect x="104" y="32" width="4" height="4" fill="#363B48" />
<rect x="32" y="36" width="4" height="32" fill="#363B48" />
<rect x="36" y="36" width="20" height="4" fill="#C2E1EE" />
<rect x="56" y="36" width="4" height="4" fill="#252237" />
<rect x="60" y="36" width="4" height="16" fill="#C2E1EE" />
<rect x="76" y="36" width="4" height="32" fill="#E2F8FB" />
<rect x="80" y="36" width="4" height="4" fill="#363B48" />
<rect x="84" y="36" width="4" height="32" fill="#C2E1EE" />
<rect x="104" y="36" width="4" height="28" fill="#C2E1EE" />
<rect x="36" y="40" width="4" height="4" fill="#252237" />
<rect x="40" y="40" width="20" height="4" fill="#C2E1EE" />
<rect x="80" y="40" width="4" height="4" fill="#E2F8FB" />
<rect x="36" y="44" width="4" height="20" fill="#363B48" />
<rect x="40" y="44" width="4" height="4" fill="#252237" />
<rect x="44" y="44" width="12" height="8" fill="#C2E1EE" />
<rect x="56" y="44" width="4" height="4" fill="#252237" />
<rect x="80" y="44" width="4" height="4" fill="#252237" />
<rect x="40" y="48" width="4" height="8" fill="#363B48" />
<rect x="56" y="48" width="4" height="20" fill="#C2E1EE" />
<rect x="80" y="48" width="4" height="4" fill="#E2F8FB" />
<rect x="108" y="48" width="4" height="20" fill="#252237" />
<rect x="44" y="52" width="4" height="20" fill="#252237" />
<rect x="48" y="52" width="8" height="16" fill="#C2E1EE" />
<rect x="60" y="52" width="4" height="4" fill="#252237" />
<rect x="80" y="52" width="4" height="4" fill="#252237" />
<rect x="40" y="56" width="4" height="12" fill="#C2E1EE" />
<rect x="60" y="56" width="4" height="4" fill="#C2E1EE" />
<rect x="80" y="56" width="4" height="4" fill="#E2F8FB" />
<rect x="60" y="60" width="4" height="4" fill="#252237" />
<rect x="80" y="60" width="4" height="4" fill="#252237" />
<rect x="36" y="64" width="4" height="4" fill="#C2E1EE" />
<rect x="60" y="64" width="4" height="4" fill="#C2E1EE" />
<rect x="80" y="64" width="4" height="4" fill="#E2F8FB" />
<rect x="104" y="64" width="4" height="24" fill="#252237" />
<rect x="32" y="68" width="12" height="4" fill="#252237" />
<rect x="48" y="68" width="56" height="4" fill="#252237" />
<rect x="108" y="68" width="4" height="40" fill="#363B48" />
<rect x="20" y="72" width="44" height="4" fill="#C2E1EE" />
<rect x="64" y="72" width="4" height="8" fill="#E2F8FB" />
<rect x="68" y="72" width="4" height="4" fill="#C2E1EE" />
<rect x="72" y="72" width="12" height="4" fill="#252237" />
<rect x="84" y="72" width="12" height="4" fill="#C2E1EE" />
<rect x="96" y="72" width="4" height="8" fill="#E2F8FB" />
<rect x="100" y="72" width="4" height="8" fill="#C2E1EE" />
<rect x="20" y="76" width="8" height="36" fill="#363B48" />
<rect x="28" y="76" width="4" height="8" fill="#C2E1EE" />
<rect x="32" y="76" width="8" height="4" fill="#252237" />
<rect x="40" y="76" width="24" height="4" fill="#C2E1EE" />
<rect x="68" y="76" width="4" height="4" fill="#252237" />
<rect x="72" y="76" width="12" height="4" fill="#E2F8FB" />
<rect x="84" y="76" width="4" height="4" fill="#252237" />
<rect x="88" y="76" width="8" height="4" fill="#C2E1EE" />
<rect x="32" y="80" width="4" height="8" fill="#252237" />
<rect x="36" y="80" width="4" height="32" fill="#363B48" />
<rect x="40" y="80" width="28" height="4" fill="#252237" />
<rect x="68" y="80" width="4" height="4" fill="#C2E1EE" />
<rect x="72" y="80" width="12" height="4" fill="#252237" />
<rect x="84" y="80" width="4" height="4" fill="#C2E1EE" />
<rect x="88" y="80" width="16" height="4" fill="#252237" />
<rect x="28" y="84" width="4" height="28" fill="#363B48" />
<rect x="40" y="84" width="4" height="28" fill="#363B48" />
<rect x="44" y="84" width="16" height="4" fill="#C2E1EE" />
<rect x="60" y="84" width="4" height="8" fill="#252237" />
<rect x="64" y="84" width="4" height="12" fill="#E2F8FB" />
<rect x="68" y="84" width="4" height="12" fill="#252237" />
<rect x="72" y="84" width="4" height="4" fill="#E2F8FB" />
<rect x="76" y="84" width="4" height="4" fill="#252237" />
<rect x="80" y="84" width="4" height="4" fill="#E2F8FB" />
<rect x="84" y="84" width="4" height="12" fill="#252237" />
<rect x="88" y="84" width="4" height="12" fill="#C2E1EE" />
<rect x="92" y="84" width="4" height="16" fill="#252237" />
<rect x="96" y="84" width="4" height="4" fill="#E2F8FB" />
<rect x="100" y="84" width="4" height="4" fill="#C2E1EE" />
<rect x="32" y="88" width="4" height="24" fill="#363B48" />
<rect x="44" y="88" width="4" height="24" fill="#363B48" />
<rect x="48" y="88" width="12" height="4" fill="#252237" />
<rect x="72" y="88" width="4" height="4" fill="#252237" />
<rect x="76" y="88" width="4" height="4" fill="#E2F8FB" />
<rect x="80" y="88" width="4" height="4" fill="#252237" />
<rect x="96" y="88" width="8" height="4" fill="#252237" />
<rect x="104" y="88" width="4" height="24" fill="#363B48" />
<rect x="48" y="92" width="16" height="20" fill="#363B48" />
<rect x="72" y="92" width="4" height="4" fill="#E2F8FB" />
<rect x="76" y="92" width="4" height="8" fill="#252237" />
<rect x="80" y="92" width="4" height="4" fill="#E2F8FB" />
<rect x="96" y="92" width="8" height="20" fill="#363B48" />
<rect x="64" y="96" width="4" height="16" fill="#363B48" />
<rect x="68" y="96" width="4" height="4" fill="#C2E1EE" />
<rect x="72" y="96" width="4" height="4" fill="#252237" />
<rect x="80" y="96" width="4" height="4" fill="#252237" />
<rect x="84" y="96" width="4" height="4" fill="#C2E1EE" />
<rect x="88" y="96" width="4" height="8" fill="#252237" />
<rect x="68" y="100" width="4" height="12" fill="#363B48" />
<rect x="72" y="100" width="12" height="4" fill="#E2F8FB" />
<rect x="84" y="100" width="4" height="8" fill="#252237" />
<rect x="92" y="100" width="4" height="12" fill="#363B48" />
<rect x="72" y="104" width="4" height="8" fill="#363B48" />
<rect x="76" y="104" width="8" height="4" fill="#252237" />
<rect x="88" y="104" width="4" height="8" fill="#363B48" />
<rect x="16" y="108" width="4" height="12" fill="#C2E1EE" />
<rect x="76" y="108" width="12" height="4" fill="#363B48" />
<rect x="108" y="108" width="4" height="12" fill="#C2E1EE" />
<rect x="20" y="112" width="44" height="8" fill="#C2E1EE" />
<rect x="64" y="112" width="4" height="8" fill="#E2F8FB" />
<rect x="68" y="112" width="4" height="8" fill="#C2E1EE" />
<rect x="72" y="112" width="12" height="8" fill="#E2F8FB" />
<rect x="84" y="112" width="12" height="8" fill="#C2E1EE" />
<rect x="96" y="112" width="4" height="8" fill="#E2F8FB" />
<rect x="100" y="112" width="8" height="8" fill="#C2E1EE" />
<rect x="116" y="112" width="4" height="12" fill="#363B48" opacity="0.686275" />
<rect x="112" y="116" width="4" height="12" fill="#363B48" opacity="0.686275" />
<rect x="20" y="120" width="92" height="4" fill="#363B48" opacity="0.686275" />
<rect x="24" y="124" width="88" height="4" fill="#363B48" opacity="0.686275" />
</svg>